<svg width="878" height="384" viewBox="0 0 878 384" fill="none" xmlns="http://www.w3.org/2000/svg">
<g filter="url(#filter0_d_114_3)">
<path d="M25 207L37.8948 200.69L56.0583 193.293L71.8648 185.025L87.1166 172.188L104.032 162.179L123.998 152.823L141.607 137.158L159.078 117.14L173.775 106.044L191.938 88.6377L212.459 69.2733L228.266 52.7374L239.913 35.3312L248.093 25.105H252.807H259.324H265.702H269.168H278.042L287.332 18.7953L293.849 14.2262L307.298 4H319.638L333.087 14.2262L344.734 18.7953L354.717 35.3312L369.969 48.1683L391.044 64.7042L403.939 81.2401L423.212 100.604L432.641 111.483L456.073 127.149L484.774 152.823L499.887 162.179L517.496 178.715L532 184.5L538 190" stroke="white" stroke-width="4"/>
</g>
<g filter="url(#filter1_d_114_3)">
<path d="M6 208L18.8948 201.659L37.0583 194.225L52.8648 185.916L68.1166 173.016L85.0323 162.958L104.998 153.556L122.607 137.814L140.078 117.698L154.775 106.547L172.938 89.0547L193.459 69.5949L209.266 52.9775L220.913 35.4855L229.093 25.209H233.807H240.324H246.702H250.168H259.042L268.332 18.8682L274.849 14.2765L288.298 4H300.638L314.087 14.2765L325.734 18.8682L335.717 35.4855L350.969 48.3858L372.044 65.0032L384.939 81.6206L404.212 101.08L413.641 112.013L437.073 127.756L465.774 153.556L480.887 162.958L498.496 179.576L516.66 185.916L525.5 191" stroke="white" stroke-width="7"/>
</g>
<g filter="url(#filter2_d_114_3)">
<mask id="path-3-outside-1_114_3" maskUnits="userSpaceOnUse" x="168" y="186" width="690" height="113" fill="black">
<rect fill="white" x="168" y="186" width="690" height="113"/>
<path d="M190.8 262.25L176.85 296H169.8L210.6 198.05H214.65L255.75 296H248.1L234 262.25H190.8ZM212.25 209.15C210.75 213.65 209.4 217.4 208.2 220.4L193.2 256.4H231.6L216.75 220.55C214.45 214.95 212.95 211.15 212.25 209.15ZM299.802 296V189.2C309.302 188.5 317.252 188.15 323.652 188.15C333.852 188.15 342.252 190.8 348.852 196.1C355.452 201.3 358.752 208.7 358.752 218.3C358.752 224.8 356.852 230.85 353.052 236.45C349.252 242.05 345.002 246.5 340.302 249.8C344.002 254.9 348.552 261 353.952 268.1C359.452 275.1 363.002 279.5 364.602 281.3C370.702 287.8 377.602 291.5 385.302 292.4L385.152 297.2C379.052 297.1 374.102 296.2 370.302 294.5C366.502 292.7 362.852 290 359.352 286.4C355.952 282.8 347.402 271.6 333.702 252.8C323.902 252.8 315.002 252.5 307.002 251.9V296H299.802ZM329.352 246.8C333.752 246.8 338.452 243.9 343.452 238.1C348.452 232.3 350.952 225.6 350.952 218C350.952 210.3 348.352 204.5 343.152 200.6C338.052 196.6 331.252 194.6 322.752 194.6C318.252 194.6 313.002 194.8 307.002 195.2V246.05C315.002 246.55 322.452 246.8 329.352 246.8ZM421.032 296V188.75H470.832V195.05H428.232V234.5H466.782V240.65H428.232V289.7H472.482V296H421.032ZM530.706 205.85L531.006 218.6V296H523.806V187.85H527.106L597.756 269.3C602.556 275 606.256 279.55 608.856 282.95C608.456 278.15 608.256 272.65 608.256 266.45V188.75H615.456V296.9H612.156L540.156 213.95C535.156 208.25 531.956 204.45 530.556 202.55L530.706 205.85ZM683.256 258.8L667.806 296H660.156L705.306 188H709.506L754.806 296H746.706L731.256 258.8H683.256ZM706.956 200C706.856 200.1 706.656 200.7 706.356 201.8C704.956 206.1 703.606 209.75 702.306 212.75L685.806 252.65H728.706L712.206 212.9C708.706 205.3 706.956 201 706.956 200ZM799.519 296V188.75H806.719V289.4H856.069V296H799.519Z"/>
</mask>
<path d="M190.8 262.25L176.85 296H169.8L210.6 198.05H214.65L255.75 296H248.1L234 262.25H190.8ZM212.25 209.15C210.75 213.65 209.4 217.4 208.2 220.4L193.2 256.4H231.6L216.75 220.55C214.45 214.95 212.95 211.15 212.25 209.15ZM299.802 296V189.2C309.302 188.5 317.252 188.15 323.652 188.15C333.852 188.15 342.252 190.8 348.852 196.1C355.452 201.3 358.752 208.7 358.752 218.3C358.752 224.8 356.852 230.85 353.052 236.45C349.252 242.05 345.002 246.5 340.302 249.8C344.002 254.9 348.552 261 353.952 268.1C359.452 275.1 363.002 279.5 364.602 281.3C370.702 287.8 377.602 291.5 385.302 292.4L385.152 297.2C379.052 297.1 374.102 296.2 370.302 294.5C366.502 292.7 362.852 290 359.352 286.4C355.952 282.8 347.402 271.6 333.702 252.8C323.902 252.8 315.002 252.5 307.002 251.9V296H299.802ZM329.352 246.8C333.752 246.8 338.452 243.9 343.452 238.1C348.452 232.3 350.952 225.6 350.952 218C350.952 210.3 348.352 204.5 343.152 200.6C338.052 196.6 331.252 194.6 322.752 194.6C318.252 194.6 313.002 194.8 307.002 195.2V246.05C315.002 246.55 322.452 246.8 329.352 246.8ZM421.032 296V188.75H470.832V195.05H428.232V234.5H466.782V240.65H428.232V289.7H472.482V296H421.032ZM530.706 205.85L531.006 218.6V296H523.806V187.85H527.106L597.756 269.3C602.556 275 606.256 279.55 608.856 282.95C608.456 278.15 608.256 272.65 608.256 266.45V188.75H615.456V296.9H612.156L540.156 213.95C535.156 208.25 531.956 204.45 530.556 202.55L530.706 205.85ZM683.256 258.8L667.806 296H660.156L705.306 188H709.506L754.806 296H746.706L731.256 258.8H683.256ZM706.956 200C706.856 200.1 706.656 200.7 706.356 201.8C704.956 206.1 703.606 209.75 702.306 212.75L685.806 252.65H728.706L712.206 212.9C708.706 205.3 706.956 201 706.956 200ZM799.519 296V188.75H806.719V289.4H856.069V296H799.519Z" fill="white"/>
<path d="M190.8 262.25V261.25H190.131L189.876 261.868L190.8 262.25ZM176.85 296V297H177.519L177.774 296.382L176.85 296ZM169.8 296L168.877 295.615L168.3 297H169.8V296ZM210.6 198.05V197.05H209.933L209.677 197.665L210.6 198.05ZM214.65 198.05L215.572 197.663L215.315 197.05H214.65V198.05ZM255.75 296V297H257.254L256.672 295.613L255.75 296ZM248.1 296L247.177 296.385L247.434 297H248.1V296ZM234 262.25L234.923 261.865L234.666 261.25H234V262.25ZM212.25 209.15L213.194 208.82L212.227 206.057L211.301 208.834L212.25 209.15ZM208.2 220.4L209.123 220.785L209.126 220.778L209.128 220.771L208.2 220.4ZM193.2 256.4L192.277 256.015L191.7 257.4H193.2V256.4ZM231.6 256.4V257.4H233.097L232.524 256.017L231.6 256.4ZM216.75 220.55L215.825 220.93L215.826 220.933L216.75 220.55ZM189.876 261.868L175.926 295.618L177.774 296.382L191.724 262.632L189.876 261.868ZM176.85 295H169.8V297H176.85V295ZM170.723 296.385L211.523 198.435L209.677 197.665L168.877 295.615L170.723 296.385ZM210.6 199.05H214.65V197.05H210.6V199.05ZM213.728 198.437L254.828 296.387L256.672 295.613L215.572 197.663L213.728 198.437ZM255.75 295H248.1V297H255.75V295ZM249.023 295.615L234.923 261.865L233.077 262.635L247.177 296.385L249.023 295.615ZM234 261.25H190.8V263.25H234V261.25ZM211.301 208.834C209.805 213.323 208.462 217.053 207.272 220.029L209.128 220.771C210.338 217.747 211.695 213.977 213.199 209.466L211.301 208.834ZM207.277 220.015L192.277 256.015L194.123 256.785L209.123 220.785L207.277 220.015ZM193.2 257.4H231.6V255.4H193.2V257.4ZM232.524 256.017L217.674 220.167L215.826 220.933L230.676 256.783L232.524 256.017ZM217.675 220.17C215.374 214.567 213.884 210.791 213.194 208.82L211.306 209.48C212.016 211.509 213.526 215.333 215.825 220.93L217.675 220.17ZM299.802 296H298.802V297H299.802V296ZM299.802 189.2L299.728 188.203L298.802 188.271V189.2H299.802ZM348.852 196.1L348.226 196.88L348.233 196.885L348.852 196.1ZM353.052 236.45L352.224 235.888L352.224 235.888L353.052 236.45ZM340.302 249.8L339.727 248.982L338.896 249.565L339.493 250.387L340.302 249.8ZM353.952 268.1L353.156 268.705L353.161 268.712L353.166 268.718L353.952 268.1ZM364.602 281.3L363.855 281.964L363.864 281.974L363.873 281.984L364.602 281.3ZM385.302 292.4L386.301 292.431L386.33 291.513L385.418 291.407L385.302 292.4ZM385.152 297.2L385.136 298.2L386.121 298.216L386.151 297.231L385.152 297.2ZM370.302 294.5L369.874 295.404L369.884 295.408L369.894 295.413L370.302 294.5ZM359.352 286.4L358.625 287.087L358.63 287.092L358.635 287.097L359.352 286.4ZM333.702 252.8L334.51 252.211L334.211 251.8H333.702V252.8ZM307.002 251.9L307.077 250.903L306.002 250.822V251.9H307.002ZM307.002 296V297H308.002V296H307.002ZM343.452 238.1L342.695 237.447L342.695 237.447L343.452 238.1ZM343.152 200.6L342.535 201.387L342.543 201.394L342.552 201.4L343.152 200.6ZM307.002 195.2L306.935 194.202L306.002 194.264V195.2H307.002ZM307.002 246.05H306.002V246.989L306.94 247.048L307.002 246.05ZM300.802 296V189.2H298.802V296H300.802ZM299.875 190.197C309.362 189.498 317.285 189.15 323.652 189.15V187.15C317.219 187.15 309.242 187.502 299.728 188.203L299.875 190.197ZM323.652 189.15C333.673 189.15 341.838 191.75 348.226 196.88L349.478 195.32C342.666 189.85 334.031 187.15 323.652 187.15V189.15ZM348.233 196.885C354.556 201.867 357.752 208.957 357.752 218.3H359.752C359.752 208.443 356.348 200.733 349.471 195.315L348.233 196.885ZM357.752 218.3C357.752 224.591 355.917 230.447 352.224 235.888L353.879 237.011C357.787 231.253 359.752 225.009 359.752 218.3H357.752ZM352.224 235.888C348.481 241.406 344.312 245.762 339.727 248.982L340.877 250.618C345.692 247.238 350.023 242.694 353.879 237.011L352.224 235.888ZM339.493 250.387C343.198 255.495 347.753 261.602 353.156 268.705L354.748 267.495C349.351 260.398 344.806 254.305 341.111 249.213L339.493 250.387ZM353.166 268.718C358.66 275.71 362.23 280.137 363.855 281.964L365.349 280.636C363.774 278.863 360.244 274.49 354.738 267.482L353.166 268.718ZM363.873 281.984C370.109 288.629 377.217 292.462 385.186 293.393L385.418 291.407C377.987 290.538 371.295 286.971 365.331 280.616L363.873 281.984ZM384.302 292.369L384.152 297.169L386.151 297.231L386.301 292.431L384.302 292.369ZM385.168 296.2C379.146 296.101 374.343 295.213 370.71 293.587L369.894 295.413C373.861 297.187 378.958 298.099 385.136 298.2L385.168 296.2ZM370.73 293.596C367.057 291.856 363.501 289.234 360.069 285.703L358.635 287.097C362.202 290.766 365.947 293.544 369.874 295.404L370.73 293.596ZM360.079 285.713C356.734 282.171 348.228 271.036 334.51 252.211L332.894 253.389C346.576 272.164 355.17 283.429 358.625 287.087L360.079 285.713ZM333.702 251.8C323.922 251.8 315.047 251.501 307.077 250.903L306.927 252.897C314.957 253.499 323.882 253.8 333.702 253.8V251.8ZM306.002 251.9V296H308.002V251.9H306.002ZM307.002 295H299.802V297H307.002V295ZM329.352 247.8C334.199 247.8 339.153 244.618 344.209 238.753L342.695 237.447C337.751 243.182 333.305 245.8 329.352 245.8V247.8ZM344.209 238.753C349.365 232.773 351.952 225.842 351.952 218H349.952C349.952 225.358 347.539 231.827 342.695 237.447L344.209 238.753ZM351.952 218C351.952 210.051 349.252 203.925 343.752 199.8L342.552 201.4C347.452 205.075 349.952 210.549 349.952 218H351.952ZM343.769 199.813C338.445 195.637 331.406 193.6 322.752 193.6V195.6C331.098 195.6 337.659 197.563 342.535 201.387L343.769 199.813ZM322.752 193.6C318.224 193.6 312.951 193.801 306.935 194.202L307.068 196.198C313.053 195.799 318.28 195.6 322.752 195.6V193.6ZM306.002 195.2V246.05H308.002V195.2H306.002ZM306.94 247.048C314.957 247.549 322.428 247.8 329.352 247.8V245.8C322.476 245.8 315.047 245.551 307.064 245.052L306.94 247.048ZM421.032 296H420.032V297H421.032V296ZM421.032 188.75V187.75H420.032V188.75H421.032ZM470.832 188.75H471.832V187.75H470.832V188.75ZM470.832 195.05V196.05H471.832V195.05H470.832ZM428.232 195.05V194.05H427.232V195.05H428.232ZM428.232 234.5H427.232V235.5H428.232V234.5ZM466.782 234.5H467.782V233.5H466.782V234.5ZM466.782 240.65V241.65H467.782V240.65H466.782ZM428.232 240.65V239.65H427.232V240.65H428.232ZM428.232 289.7H427.232V290.7H428.232V289.7ZM472.482 289.7H473.482V288.7H472.482V289.7ZM472.482 296V297H473.482V296H472.482ZM422.032 296V188.75H420.032V296H422.032ZM421.032 189.75H470.832V187.75H421.032V189.75ZM469.832 188.75V195.05H471.832V188.75H469.832ZM470.832 194.05H428.232V196.05H470.832V194.05ZM427.232 195.05V234.5H429.232V195.05H427.232ZM428.232 235.5H466.782V233.5H428.232V235.5ZM465.782 234.5V240.65H467.782V234.5H465.782ZM466.782 239.65H428.232V241.65H466.782V239.65ZM427.232 240.65V289.7H429.232V240.65H427.232ZM428.232 290.7H472.482V288.7H428.232V290.7ZM471.482 289.7V296H473.482V289.7H471.482ZM472.482 295H421.032V297H472.482V295ZM530.706 205.85L531.706 205.826L531.705 205.816L531.705 205.805L530.706 205.85ZM531.006 218.6H532.006V218.588L532.006 218.576L531.006 218.6ZM531.006 296V297H532.006V296H531.006ZM523.806 296H522.806V297H523.806V296ZM523.806 187.85V186.85H522.806V187.85H523.806ZM527.106 187.85L527.861 187.195L527.562 186.85H527.106V187.85ZM597.756 269.3L598.521 268.656L598.516 268.65L598.511 268.645L597.756 269.3ZM608.856 282.95L608.062 283.557L610.136 286.27L609.852 282.867L608.856 282.95ZM608.256 188.75V187.75H607.256V188.75H608.256ZM615.456 188.75H616.456V187.75H615.456V188.75ZM615.456 296.9V297.9H616.456V296.9H615.456ZM612.156 296.9L611.401 297.556L611.7 297.9H612.156V296.9ZM540.156 213.95L540.911 213.294L540.908 213.291L540.156 213.95ZM530.556 202.55L531.361 201.957L529.407 199.306L529.557 202.595L530.556 202.55ZM529.706 205.874L530.006 218.624L532.006 218.576L531.706 205.826L529.706 205.874ZM530.006 218.6V296H532.006V218.6H530.006ZM531.006 295H523.806V297H531.006V295ZM524.806 296V187.85H522.806V296H524.806ZM523.806 188.85H527.106V186.85H523.806V188.85ZM526.35 188.505L597 269.955L598.511 268.645L527.861 187.195L526.35 188.505ZM596.991 269.944C601.787 275.64 605.475 280.176 608.062 283.557L609.65 282.343C607.036 278.924 603.325 274.36 598.521 268.656L596.991 269.944ZM609.852 282.867C609.455 278.101 609.256 272.63 609.256 266.45H607.256C607.256 272.67 607.456 278.199 607.859 283.033L609.852 282.867ZM609.256 266.45V188.75H607.256V266.45H609.256ZM608.256 189.75H615.456V187.75H608.256V189.75ZM614.456 188.75V296.9H616.456V188.75H614.456ZM615.456 295.9H612.156V297.9H615.456V295.9ZM612.911 296.244L540.911 213.294L539.401 214.605L611.401 297.556L612.911 296.244ZM540.908 213.291C535.901 207.584 532.731 203.816 531.361 201.957L529.751 203.143C531.181 205.084 534.41 208.916 539.404 214.609L540.908 213.291ZM529.557 202.595L529.707 205.895L531.705 205.805L531.555 202.505L529.557 202.595ZM683.256 258.8V257.8H682.588L682.332 258.416L683.256 258.8ZM667.806 296V297H668.473L668.729 296.384L667.806 296ZM660.156 296L659.233 295.614L658.654 297H660.156V296ZM705.306 188V187H704.64L704.383 187.614L705.306 188ZM709.506 188L710.428 187.613L710.171 187H709.506V188ZM754.806 296V297H756.31L755.728 295.613L754.806 296ZM746.706 296L745.782 296.384L746.038 297H746.706V296ZM731.256 258.8L732.179 258.416L731.923 257.8H731.256V258.8ZM706.956 200H707.956V197.586L706.249 199.293L706.956 200ZM706.356 201.8L707.307 202.11L707.314 202.087L707.321 202.063L706.356 201.8ZM702.306 212.75L701.388 212.352L701.385 212.36L701.382 212.368L702.306 212.75ZM685.806 252.65L684.882 252.268L684.31 253.65H685.806V252.65ZM728.706 252.65V253.65H730.204L729.629 252.267L728.706 252.65ZM712.206 212.9L713.129 212.517L713.122 212.499L713.114 212.482L712.206 212.9ZM682.332 258.416L666.882 295.616L668.729 296.384L684.179 259.184L682.332 258.416ZM667.806 295H660.156V297H667.806V295ZM661.078 296.386L706.228 188.386L704.383 187.614L659.233 295.614L661.078 296.386ZM705.306 189H709.506V187H705.306V189ZM708.584 188.387L753.884 296.387L755.728 295.613L710.428 187.613L708.584 188.387ZM754.806 295H746.706V297H754.806V295ZM747.629 295.616L732.179 258.416L730.332 259.184L745.782 296.384L747.629 295.616ZM731.256 257.8H683.256V259.8H731.256V257.8ZM706.249 199.293C706.137 199.404 706.07 199.521 706.04 199.575C706.002 199.644 705.969 199.713 705.943 199.775C705.89 199.899 705.836 200.047 705.782 200.209C705.673 200.535 705.543 200.981 705.391 201.537L707.321 202.063C707.469 201.519 707.588 201.115 707.68 200.841C707.726 200.703 707.759 200.614 707.781 200.563C707.792 200.537 707.795 200.534 707.788 200.547C707.784 200.553 707.774 200.57 707.758 200.594C707.743 200.615 707.712 200.658 707.663 200.707L706.249 199.293ZM705.405 201.49C704.011 205.771 702.672 209.39 701.388 212.352L703.223 213.148C704.54 210.11 705.9 206.429 707.307 202.11L705.405 201.49ZM701.382 212.368L684.882 252.268L686.73 253.032L703.23 213.132L701.382 212.368ZM685.806 253.65H728.706V251.65H685.806V253.65ZM729.629 252.267L713.129 212.517L711.282 213.283L727.782 253.033L729.629 252.267ZM713.114 212.482C711.366 208.686 710.061 205.727 709.195 203.598C708.761 202.532 708.442 201.687 708.234 201.055C708.129 200.739 708.056 200.488 708.01 200.297C707.988 200.201 707.973 200.128 707.965 200.073C707.956 200.016 707.956 199.995 707.956 200H705.956C705.956 200.435 706.122 201.039 706.334 201.682C706.563 202.376 706.901 203.268 707.342 204.352C708.226 206.523 709.545 209.514 711.298 213.318L713.114 212.482ZM799.519 296H798.519V297H799.519V296ZM799.519 188.75V187.75H798.519V188.75H799.519ZM806.719 188.75H807.719V187.75H806.719V188.75ZM806.719 289.4H805.719V290.4H806.719V289.4ZM856.069 289.4H857.069V288.4H856.069V289.4ZM856.069 296V297H857.069V296H856.069ZM800.519 296V188.75H798.519V296H800.519ZM799.519 189.75H806.719V187.75H799.519V189.75ZM805.719 188.75V289.4H807.719V188.75H805.719ZM806.719 290.4H856.069V288.4H806.719V290.4ZM855.069 289.4V296H857.069V289.4H855.069ZM856.069 295H799.519V297H856.069V295Z" fill="white" mask="url(#path-3-outside-1_114_3)"/>
</g>
<g filter="url(#filter3_d_114_3)">
<mask id="path-5-outside-2_114_3" maskUnits="userSpaceOnUse" x="179" y="186" width="690" height="113" fill="black">
<rect fill="white" x="179" y="186" width="690" height="113"/>
<path d="M201.8 262.25L187.85 296H180.8L221.6 198.05H225.65L266.75 296H259.1L245 262.25H201.8ZM223.25 209.15C221.75 213.65 220.4 217.4 219.2 220.4L204.2 256.4H242.6L227.75 220.55C225.45 214.95 223.95 211.15 223.25 209.15ZM310.802 296V189.2C320.302 188.5 328.252 188.15 334.652 188.15C344.852 188.15 353.252 190.8 359.852 196.1C366.452 201.3 369.752 208.7 369.752 218.3C369.752 224.8 367.852 230.85 364.052 236.45C360.252 242.05 356.002 246.5 351.302 249.8C355.002 254.9 359.552 261 364.952 268.1C370.452 275.1 374.002 279.5 375.602 281.3C381.702 287.8 388.602 291.5 396.302 292.4L396.152 297.2C390.052 297.1 385.102 296.2 381.302 294.5C377.502 292.7 373.852 290 370.352 286.4C366.952 282.8 358.402 271.6 344.702 252.8C334.902 252.8 326.002 252.5 318.002 251.9V296H310.802ZM340.352 246.8C344.752 246.8 349.452 243.9 354.452 238.1C359.452 232.3 361.952 225.6 361.952 218C361.952 210.3 359.352 204.5 354.152 200.6C349.052 196.6 342.252 194.6 333.752 194.6C329.252 194.6 324.002 194.8 318.002 195.2V246.05C326.002 246.55 333.452 246.8 340.352 246.8ZM432.032 296V188.75H481.832V195.05H439.232V234.5H477.782V240.65H439.232V289.7H483.482V296H432.032ZM541.706 205.85L542.006 218.6V296H534.806V187.85H538.106L608.756 269.3C613.556 275 617.256 279.55 619.856 282.95C619.456 278.15 619.256 272.65 619.256 266.45V188.75H626.456V296.9H623.156L551.156 213.95C546.156 208.25 542.956 204.45 541.556 202.55L541.706 205.85ZM694.256 258.8L678.806 296H671.156L716.306 188H720.506L765.806 296H757.706L742.256 258.8H694.256ZM717.956 200C717.856 200.1 717.656 200.7 717.356 201.8C715.956 206.1 714.606 209.75 713.306 212.75L696.806 252.65H739.706L723.206 212.9C719.706 205.3 717.956 201 717.956 200ZM810.519 296V188.75H817.719V289.4H867.069V296H810.519Z"/>
</mask>
<path d="M201.8 262.25L187.85 296H180.8L221.6 198.05H225.65L266.75 296H259.1L245 262.25H201.8ZM223.25 209.15C221.75 213.65 220.4 217.4 219.2 220.4L204.2 256.4H242.6L227.75 220.55C225.45 214.95 223.95 211.15 223.25 209.15ZM310.802 296V189.2C320.302 188.5 328.252 188.15 334.652 188.15C344.852 188.15 353.252 190.8 359.852 196.1C366.452 201.3 369.752 208.7 369.752 218.3C369.752 224.8 367.852 230.85 364.052 236.45C360.252 242.05 356.002 246.5 351.302 249.8C355.002 254.9 359.552 261 364.952 268.1C370.452 275.1 374.002 279.5 375.602 281.3C381.702 287.8 388.602 291.5 396.302 292.4L396.152 297.2C390.052 297.1 385.102 296.2 381.302 294.5C377.502 292.7 373.852 290 370.352 286.4C366.952 282.8 358.402 271.6 344.702 252.8C334.902 252.8 326.002 252.5 318.002 251.9V296H310.802ZM340.352 246.8C344.752 246.8 349.452 243.9 354.452 238.1C359.452 232.3 361.952 225.6 361.952 218C361.952 210.3 359.352 204.5 354.152 200.6C349.052 196.6 342.252 194.6 333.752 194.6C329.252 194.6 324.002 194.8 318.002 195.2V246.05C326.002 246.55 333.452 246.8 340.352 246.8ZM432.032 296V188.75H481.832V195.05H439.232V234.5H477.782V240.65H439.232V289.7H483.482V296H432.032ZM541.706 205.85L542.006 218.6V296H534.806V187.85H538.106L608.756 269.3C613.556 275 617.256 279.55 619.856 282.95C619.456 278.15 619.256 272.65 619.256 266.45V188.75H626.456V296.9H623.156L551.156 213.95C546.156 208.25 542.956 204.45 541.556 202.55L541.706 205.85ZM694.256 258.8L678.806 296H671.156L716.306 188H720.506L765.806 296H757.706L742.256 258.8H694.256ZM717.956 200C717.856 200.1 717.656 200.7 717.356 201.8C715.956 206.1 714.606 209.75 713.306 212.75L696.806 252.65H739.706L723.206 212.9C719.706 205.3 717.956 201 717.956 200ZM810.519 296V188.75H817.719V289.4H867.069V296H810.519Z" fill="white"/>
<path d="M201.8 262.25V261.25H201.131L200.876 261.868L201.8 262.25ZM187.85 296V297H188.519L188.774 296.382L187.85 296ZM180.8 296L179.877 295.615L179.3 297H180.8V296ZM221.6 198.05V197.05H220.933L220.677 197.665L221.6 198.05ZM225.65 198.05L226.572 197.663L226.315 197.05H225.65V198.05ZM266.75 296V297H268.254L267.672 295.613L266.75 296ZM259.1 296L258.177 296.385L258.434 297H259.1V296ZM245 262.25L245.923 261.865L245.666 261.25H245V262.25ZM223.25 209.15L224.194 208.82L223.227 206.057L222.301 208.834L223.25 209.15ZM219.2 220.4L220.123 220.785L220.126 220.778L220.128 220.771L219.2 220.4ZM204.2 256.4L203.277 256.015L202.7 257.4H204.2V256.4ZM242.6 256.4V257.4H244.097L243.524 256.017L242.6 256.4ZM227.75 220.55L226.825 220.93L226.826 220.933L227.75 220.55ZM200.876 261.868L186.926 295.618L188.774 296.382L202.724 262.632L200.876 261.868ZM187.85 295H180.8V297H187.85V295ZM181.723 296.385L222.523 198.435L220.677 197.665L179.877 295.615L181.723 296.385ZM221.6 199.05H225.65V197.05H221.6V199.05ZM224.728 198.437L265.828 296.387L267.672 295.613L226.572 197.663L224.728 198.437ZM266.75 295H259.1V297H266.75V295ZM260.023 295.615L245.923 261.865L244.077 262.635L258.177 296.385L260.023 295.615ZM245 261.25H201.8V263.25H245V261.25ZM222.301 208.834C220.805 213.323 219.462 217.053 218.272 220.029L220.128 220.771C221.338 217.747 222.695 213.977 224.199 209.466L222.301 208.834ZM218.277 220.015L203.277 256.015L205.123 256.785L220.123 220.785L218.277 220.015ZM204.2 257.4H242.6V255.4H204.2V257.4ZM243.524 256.017L228.674 220.167L226.826 220.933L241.676 256.783L243.524 256.017ZM228.675 220.17C226.374 214.567 224.884 210.791 224.194 208.82L222.306 209.48C223.016 211.509 224.526 215.333 226.825 220.93L228.675 220.17ZM310.802 296H309.802V297H310.802V296ZM310.802 189.2L310.728 188.203L309.802 188.271V189.2H310.802ZM359.852 196.1L359.226 196.88L359.233 196.885L359.852 196.1ZM364.052 236.45L363.224 235.888L363.224 235.888L364.052 236.45ZM351.302 249.8L350.727 248.982L349.896 249.565L350.493 250.387L351.302 249.8ZM364.952 268.1L364.156 268.705L364.161 268.712L364.166 268.718L364.952 268.1ZM375.602 281.3L374.855 281.964L374.864 281.974L374.873 281.984L375.602 281.3ZM396.302 292.4L397.301 292.431L397.33 291.513L396.418 291.407L396.302 292.4ZM396.152 297.2L396.136 298.2L397.121 298.216L397.151 297.231L396.152 297.2ZM381.302 294.5L380.874 295.404L380.884 295.408L380.894 295.413L381.302 294.5ZM370.352 286.4L369.625 287.087L369.63 287.092L369.635 287.097L370.352 286.4ZM344.702 252.8L345.51 252.211L345.211 251.8H344.702V252.8ZM318.002 251.9L318.077 250.903L317.002 250.822V251.9H318.002ZM318.002 296V297H319.002V296H318.002ZM354.452 238.1L353.695 237.447L353.695 237.447L354.452 238.1ZM354.152 200.6L353.535 201.387L353.543 201.394L353.552 201.4L354.152 200.6ZM318.002 195.2L317.935 194.202L317.002 194.264V195.2H318.002ZM318.002 246.05H317.002V246.989L317.94 247.048L318.002 246.05ZM311.802 296V189.2H309.802V296H311.802ZM310.875 190.197C320.362 189.498 328.285 189.15 334.652 189.15V187.15C328.219 187.15 320.242 187.502 310.728 188.203L310.875 190.197ZM334.652 189.15C344.673 189.15 352.838 191.75 359.226 196.88L360.478 195.32C353.666 189.85 345.031 187.15 334.652 187.15V189.15ZM359.233 196.885C365.556 201.867 368.752 208.957 368.752 218.3H370.752C370.752 208.443 367.348 200.733 360.471 195.315L359.233 196.885ZM368.752 218.3C368.752 224.591 366.917 230.447 363.224 235.888L364.879 237.011C368.787 231.253 370.752 225.009 370.752 218.3H368.752ZM363.224 235.888C359.481 241.406 355.312 245.762 350.727 248.982L351.877 250.618C356.692 247.238 361.023 242.694 364.879 237.011L363.224 235.888ZM350.493 250.387C354.198 255.495 358.753 261.602 364.156 268.705L365.748 267.495C360.351 260.398 355.806 254.305 352.111 249.213L350.493 250.387ZM364.166 268.718C369.66 275.71 373.23 280.137 374.855 281.964L376.349 280.636C374.774 278.863 371.244 274.49 365.738 267.482L364.166 268.718ZM374.873 281.984C381.109 288.629 388.217 292.462 396.186 293.393L396.418 291.407C388.987 290.538 382.295 286.971 376.331 280.616L374.873 281.984ZM395.302 292.369L395.152 297.169L397.151 297.231L397.301 292.431L395.302 292.369ZM396.168 296.2C390.146 296.101 385.343 295.213 381.71 293.587L380.894 295.413C384.861 297.187 389.958 298.099 396.136 298.2L396.168 296.2ZM381.73 293.596C378.057 291.856 374.501 289.234 371.069 285.703L369.635 287.097C373.202 290.766 376.947 293.544 380.874 295.404L381.73 293.596ZM371.079 285.713C367.734 282.171 359.228 271.036 345.51 252.211L343.894 253.389C357.576 272.164 366.17 283.429 369.625 287.087L371.079 285.713ZM344.702 251.8C334.922 251.8 326.047 251.501 318.077 250.903L317.927 252.897C325.957 253.499 334.882 253.8 344.702 253.8V251.8ZM317.002 251.9V296H319.002V251.9H317.002ZM318.002 295H310.802V297H318.002V295ZM340.352 247.8C345.199 247.8 350.153 244.618 355.209 238.753L353.695 237.447C348.751 243.182 344.305 245.8 340.352 245.8V247.8ZM355.209 238.753C360.365 232.773 362.952 225.842 362.952 218H360.952C360.952 225.358 358.539 231.827 353.695 237.447L355.209 238.753ZM362.952 218C362.952 210.051 360.252 203.925 354.752 199.8L353.552 201.4C358.452 205.075 360.952 210.549 360.952 218H362.952ZM354.769 199.813C349.445 195.637 342.406 193.6 333.752 193.6V195.6C342.098 195.6 348.659 197.563 353.535 201.387L354.769 199.813ZM333.752 193.6C329.224 193.6 323.951 193.801 317.935 194.202L318.068 196.198C324.053 195.799 329.28 195.6 333.752 195.6V193.6ZM317.002 195.2V246.05H319.002V195.2H317.002ZM317.94 247.048C325.957 247.549 333.428 247.8 340.352 247.8V245.8C333.476 245.8 326.047 245.551 318.064 245.052L317.94 247.048ZM432.032 296H431.032V297H432.032V296ZM432.032 188.75V187.75H431.032V188.75H432.032ZM481.832 188.75H482.832V187.75H481.832V188.75ZM481.832 195.05V196.05H482.832V195.05H481.832ZM439.232 195.05V194.05H438.232V195.05H439.232ZM439.232 234.5H438.232V235.5H439.232V234.5ZM477.782 234.5H478.782V233.5H477.782V234.5ZM477.782 240.65V241.65H478.782V240.65H477.782ZM439.232 240.65V239.65H438.232V240.65H439.232ZM439.232 289.7H438.232V290.7H439.232V289.7ZM483.482 289.7H484.482V288.7H483.482V289.7ZM483.482 296V297H484.482V296H483.482ZM433.032 296V188.75H431.032V296H433.032ZM432.032 189.75H481.832V187.75H432.032V189.75ZM480.832 188.75V195.05H482.832V188.75H480.832ZM481.832 194.05H439.232V196.05H481.832V194.05ZM438.232 195.05V234.5H440.232V195.05H438.232ZM439.232 235.5H477.782V233.5H439.232V235.5ZM476.782 234.5V240.65H478.782V234.5H476.782ZM477.782 239.65H439.232V241.65H477.782V239.65ZM438.232 240.65V289.7H440.232V240.65H438.232ZM439.232 290.7H483.482V288.7H439.232V290.7ZM482.482 289.7V296H484.482V289.7H482.482ZM483.482 295H432.032V297H483.482V295ZM541.706 205.85L542.706 205.826L542.705 205.816L542.705 205.805L541.706 205.85ZM542.006 218.6H543.006V218.588L543.006 218.576L542.006 218.6ZM542.006 296V297H543.006V296H542.006ZM534.806 296H533.806V297H534.806V296ZM534.806 187.85V186.85H533.806V187.85H534.806ZM538.106 187.85L538.861 187.195L538.562 186.85H538.106V187.85ZM608.756 269.3L609.521 268.656L609.516 268.65L609.511 268.645L608.756 269.3ZM619.856 282.95L619.062 283.557L621.136 286.27L620.852 282.867L619.856 282.95ZM619.256 188.75V187.75H618.256V188.75H619.256ZM626.456 188.75H627.456V187.75H626.456V188.75ZM626.456 296.9V297.9H627.456V296.9H626.456ZM623.156 296.9L622.401 297.556L622.7 297.9H623.156V296.9ZM551.156 213.95L551.911 213.294L551.908 213.291L551.156 213.95ZM541.556 202.55L542.361 201.957L540.407 199.306L540.557 202.595L541.556 202.55ZM540.706 205.874L541.006 218.624L543.006 218.576L542.706 205.826L540.706 205.874ZM541.006 218.6V296H543.006V218.6H541.006ZM542.006 295H534.806V297H542.006V295ZM535.806 296V187.85H533.806V296H535.806ZM534.806 188.85H538.106V186.85H534.806V188.85ZM537.35 188.505L608 269.955L609.511 268.645L538.861 187.195L537.35 188.505ZM607.991 269.944C612.787 275.64 616.475 280.176 619.062 283.557L620.65 282.343C618.036 278.924 614.325 274.36 609.521 268.656L607.991 269.944ZM620.852 282.867C620.455 278.101 620.256 272.63 620.256 266.45H618.256C618.256 272.67 618.456 278.199 618.859 283.033L620.852 282.867ZM620.256 266.45V188.75H618.256V266.45H620.256ZM619.256 189.75H626.456V187.75H619.256V189.75ZM625.456 188.75V296.9H627.456V188.75H625.456ZM626.456 295.9H623.156V297.9H626.456V295.9ZM623.911 296.244L551.911 213.294L550.401 214.605L622.401 297.556L623.911 296.244ZM551.908 213.291C546.901 207.584 543.731 203.816 542.361 201.957L540.751 203.143C542.181 205.084 545.41 208.916 550.404 214.609L551.908 213.291ZM540.557 202.595L540.707 205.895L542.705 205.805L542.555 202.505L540.557 202.595ZM694.256 258.8V257.8H693.588L693.332 258.416L694.256 258.8ZM678.806 296V297H679.473L679.729 296.384L678.806 296ZM671.156 296L670.233 295.614L669.654 297H671.156V296ZM716.306 188V187H715.64L715.383 187.614L716.306 188ZM720.506 188L721.428 187.613L721.171 187H720.506V188ZM765.806 296V297H767.31L766.728 295.613L765.806 296ZM757.706 296L756.782 296.384L757.038 297H757.706V296ZM742.256 258.8L743.179 258.416L742.923 257.8H742.256V258.8ZM717.956 200H718.956V197.586L717.249 199.293L717.956 200ZM717.356 201.8L718.307 202.11L718.314 202.087L718.321 202.063L717.356 201.8ZM713.306 212.75L712.388 212.352L712.385 212.36L712.382 212.368L713.306 212.75ZM696.806 252.65L695.882 252.268L695.31 253.65H696.806V252.65ZM739.706 252.65V253.65H741.204L740.629 252.267L739.706 252.65ZM723.206 212.9L724.129 212.517L724.122 212.499L724.114 212.482L723.206 212.9ZM693.332 258.416L677.882 295.616L679.729 296.384L695.179 259.184L693.332 258.416ZM678.806 295H671.156V297H678.806V295ZM672.078 296.386L717.228 188.386L715.383 187.614L670.233 295.614L672.078 296.386ZM716.306 189H720.506V187H716.306V189ZM719.584 188.387L764.884 296.387L766.728 295.613L721.428 187.613L719.584 188.387ZM765.806 295H757.706V297H765.806V295ZM758.629 295.616L743.179 258.416L741.332 259.184L756.782 296.384L758.629 295.616ZM742.256 257.8H694.256V259.8H742.256V257.8ZM717.249 199.293C717.137 199.404 717.07 199.521 717.04 199.575C717.002 199.644 716.969 199.713 716.943 199.775C716.89 199.899 716.836 200.047 716.782 200.209C716.673 200.535 716.543 200.981 716.391 201.537L718.321 202.063C718.469 201.519 718.588 201.115 718.68 200.841C718.726 200.703 718.759 200.614 718.781 200.563C718.792 200.537 718.795 200.534 718.788 200.547C718.784 200.553 718.774 200.57 718.758 200.594C718.743 200.615 718.712 200.658 718.663 200.707L717.249 199.293ZM716.405 201.49C715.011 205.771 713.672 209.39 712.388 212.352L714.223 213.148C715.54 210.11 716.9 206.429 718.307 202.11L716.405 201.49ZM712.382 212.368L695.882 252.268L697.73 253.032L714.23 213.132L712.382 212.368ZM696.806 253.65H739.706V251.65H696.806V253.65ZM740.629 252.267L724.129 212.517L722.282 213.283L738.782 253.033L740.629 252.267ZM724.114 212.482C722.366 208.686 721.061 205.727 720.195 203.598C719.761 202.532 719.442 201.687 719.234 201.055C719.129 200.739 719.056 200.488 719.01 200.297C718.988 200.201 718.973 200.128 718.965 200.073C718.956 200.016 718.956 199.995 718.956 200H716.956C716.956 200.435 717.122 201.039 717.334 201.682C717.563 202.376 717.901 203.268 718.342 204.352C719.226 206.523 720.545 209.514 722.298 213.318L724.114 212.482ZM810.519 296H809.519V297H810.519V296ZM810.519 188.75V187.75H809.519V188.75H810.519ZM817.719 188.75H818.719V187.75H817.719V188.75ZM817.719 289.4H816.719V290.4H817.719V289.4ZM867.069 289.4H868.069V288.4H867.069V289.4ZM867.069 296V297H868.069V296H867.069ZM811.519 296V188.75H809.519V296H811.519ZM810.519 189.75H817.719V187.75H810.519V189.75ZM816.719 188.75V289.4H818.719V188.75H816.719ZM817.719 290.4H867.069V288.4H817.719V290.4ZM866.069 289.4V296H868.069V289.4H866.069ZM867.069 295H810.519V297H867.069V295Z" fill="white" mask="url(#path-5-outside-2_114_3)"/>
</g>
<g filter="url(#filter4_d_114_3)">
<mask id="path-7-outside-3_114_3" maskUnits="userSpaceOnUse" x="175" y="326" width="682" height="51" fill="black">
<rect fill="white" x="175" y="326" width="682" height="51"/>
<path d="M176.58 375V328.525H200.305V331.255H179.7V348.35H198.55V351.015H179.7V375H176.58ZM300.258 375V328.72C304.374 328.417 307.819 328.265 310.593 328.265C315.013 328.265 318.653 329.413 321.513 331.71C324.373 333.963 325.803 337.17 325.803 341.33C325.803 344.147 324.979 346.768 323.333 349.195C321.686 351.622 319.844 353.55 317.808 354.98C319.411 357.19 321.383 359.833 323.723 362.91C326.106 365.943 327.644 367.85 328.338 368.63C330.981 371.447 333.971 373.05 337.308 373.44L337.243 375.52C334.599 375.477 332.454 375.087 330.808 374.35C329.161 373.57 327.579 372.4 326.063 370.84C324.589 369.28 320.884 364.427 314.948 356.28C310.701 356.28 306.844 356.15 303.378 355.89V375H300.258ZM313.063 353.68C314.969 353.68 317.006 352.423 319.173 349.91C321.339 347.397 322.423 344.493 322.423 341.2C322.423 337.863 321.296 335.35 319.043 333.66C316.833 331.927 313.886 331.06 310.203 331.06C308.253 331.06 305.978 331.147 303.378 331.32V353.355C306.844 353.572 310.073 353.68 313.063 353.68ZM433.261 358.88L426.566 375H423.251L442.816 328.2H444.636L464.266 375H460.756L454.061 358.88H433.261ZM443.531 333.4C443.488 333.443 443.401 333.703 443.271 334.18C442.664 336.043 442.079 337.625 441.516 338.925L434.366 356.215H452.956L445.806 338.99C444.289 335.697 443.531 333.833 443.531 333.4ZM583.612 372.595H581.857L568.272 339.705C567.492 337.885 566.863 336.282 566.387 334.895L565.737 339.835L560.407 375H557.222L564.892 328.135H566.712L581.207 362.585C581.943 364.188 582.528 365.705 582.962 367.135C583.092 366.658 583.763 365.163 584.977 362.65L601.162 328.135H602.917L610.002 375H606.752L601.682 339.705C601.335 337.495 601.162 335.827 601.162 334.7C601.118 334.743 601.01 334.96 600.837 335.35C600.707 335.697 600.447 336.303 600.057 337.17C599.71 337.993 599.342 338.86 598.952 339.77L583.612 372.595ZM710.519 375V328.525H732.099V331.255H713.639V348.35H730.344V351.015H713.639V372.27H732.814V375H710.519ZM853.14 332.62C849.976 331.277 846.835 330.605 843.715 330.605C837.388 330.605 834.225 332.945 834.225 337.625C834.225 339.662 834.94 341.568 836.37 343.345C837.8 345.078 839.533 346.638 841.57 348.025C843.606 349.368 845.643 350.755 847.68 352.185C849.716 353.615 851.45 355.327 852.88 357.32C854.31 359.313 855.025 361.48 855.025 363.82C855.025 367.763 853.703 370.753 851.06 372.79C848.416 374.783 844.755 375.78 840.075 375.78C835.438 375.78 831.473 374.588 828.18 372.205L829.74 369.865C832.86 371.902 836.283 372.92 840.01 372.92C843.736 372.92 846.596 372.183 848.59 370.71C850.583 369.193 851.58 367.027 851.58 364.21C851.58 362.26 850.865 360.418 849.435 358.685C848.005 356.908 846.271 355.327 844.235 353.94C842.198 352.51 840.161 351.058 838.125 349.585C836.088 348.112 834.355 346.357 832.925 344.32C831.495 342.283 830.78 340.095 830.78 337.755C830.78 334.678 831.906 332.252 834.16 330.475C836.456 328.655 839.533 327.745 843.39 327.745C847.29 327.745 850.908 328.525 854.245 330.085L853.14 332.62Z"/>
</mask>
<path d="M176.58 375V328.525H200.305V331.255H179.7V348.35H198.55V351.015H179.7V375H176.58ZM300.258 375V328.72C304.374 328.417 307.819 328.265 310.593 328.265C315.013 328.265 318.653 329.413 321.513 331.71C324.373 333.963 325.803 337.17 325.803 341.33C325.803 344.147 324.979 346.768 323.333 349.195C321.686 351.622 319.844 353.55 317.808 354.98C319.411 357.19 321.383 359.833 323.723 362.91C326.106 365.943 327.644 367.85 328.338 368.63C330.981 371.447 333.971 373.05 337.308 373.44L337.243 375.52C334.599 375.477 332.454 375.087 330.808 374.35C329.161 373.57 327.579 372.4 326.063 370.84C324.589 369.28 320.884 364.427 314.948 356.28C310.701 356.28 306.844 356.15 303.378 355.89V375H300.258ZM313.063 353.68C314.969 353.68 317.006 352.423 319.173 349.91C321.339 347.397 322.423 344.493 322.423 341.2C322.423 337.863 321.296 335.35 319.043 333.66C316.833 331.927 313.886 331.06 310.203 331.06C308.253 331.06 305.978 331.147 303.378 331.32V353.355C306.844 353.572 310.073 353.68 313.063 353.68ZM433.261 358.88L426.566 375H423.251L442.816 328.2H444.636L464.266 375H460.756L454.061 358.88H433.261ZM443.531 333.4C443.488 333.443 443.401 333.703 443.271 334.18C442.664 336.043 442.079 337.625 441.516 338.925L434.366 356.215H452.956L445.806 338.99C444.289 335.697 443.531 333.833 443.531 333.4ZM583.612 372.595H581.857L568.272 339.705C567.492 337.885 566.863 336.282 566.387 334.895L565.737 339.835L560.407 375H557.222L564.892 328.135H566.712L581.207 362.585C581.943 364.188 582.528 365.705 582.962 367.135C583.092 366.658 583.763 365.163 584.977 362.65L601.162 328.135H602.917L610.002 375H606.752L601.682 339.705C601.335 337.495 601.162 335.827 601.162 334.7C601.118 334.743 601.01 334.96 600.837 335.35C600.707 335.697 600.447 336.303 600.057 337.17C599.71 337.993 599.342 338.86 598.952 339.77L583.612 372.595ZM710.519 375V328.525H732.099V331.255H713.639V348.35H730.344V351.015H713.639V372.27H732.814V375H710.519ZM853.14 332.62C849.976 331.277 846.835 330.605 843.715 330.605C837.388 330.605 834.225 332.945 834.225 337.625C834.225 339.662 834.94 341.568 836.37 343.345C837.8 345.078 839.533 346.638 841.57 348.025C843.606 349.368 845.643 350.755 847.68 352.185C849.716 353.615 851.45 355.327 852.88 357.32C854.31 359.313 855.025 361.48 855.025 363.82C855.025 367.763 853.703 370.753 851.06 372.79C848.416 374.783 844.755 375.78 840.075 375.78C835.438 375.78 831.473 374.588 828.18 372.205L829.74 369.865C832.86 371.902 836.283 372.92 840.01 372.92C843.736 372.92 846.596 372.183 848.59 370.71C850.583 369.193 851.58 367.027 851.58 364.21C851.58 362.26 850.865 360.418 849.435 358.685C848.005 356.908 846.271 355.327 844.235 353.94C842.198 352.51 840.161 351.058 838.125 349.585C836.088 348.112 834.355 346.357 832.925 344.32C831.495 342.283 830.78 340.095 830.78 337.755C830.78 334.678 831.906 332.252 834.16 330.475C836.456 328.655 839.533 327.745 843.39 327.745C847.29 327.745 850.908 328.525 854.245 330.085L853.14 332.62Z" fill="white"/>
<path d="M176.58 375H175.58V376H176.58V375ZM176.58 328.525V327.525H175.58V328.525H176.58ZM200.305 328.525H201.305V327.525H200.305V328.525ZM200.305 331.255V332.255H201.305V331.255H200.305ZM179.7 331.255V330.255H178.7V331.255H179.7ZM179.7 348.35H178.7V349.35H179.7V348.35ZM198.55 348.35H199.55V347.35H198.55V348.35ZM198.55 351.015V352.015H199.55V351.015H198.55ZM179.7 351.015V350.015H178.7V351.015H179.7ZM179.7 375V376H180.7V375H179.7ZM177.58 375V328.525H175.58V375H177.58ZM176.58 329.525H200.305V327.525H176.58V329.525ZM199.305 328.525V331.255H201.305V328.525H199.305ZM200.305 330.255H179.7V332.255H200.305V330.255ZM178.7 331.255V348.35H180.7V331.255H178.7ZM179.7 349.35H198.55V347.35H179.7V349.35ZM197.55 348.35V351.015H199.55V348.35H197.55ZM198.55 350.015H179.7V352.015H198.55V350.015ZM178.7 351.015V375H180.7V351.015H178.7ZM179.7 374H176.58V376H179.7V374ZM300.258 375H299.258V376H300.258V375ZM300.258 328.72L300.184 327.723L299.258 327.791V328.72H300.258ZM321.513 331.71L320.887 332.49L320.894 332.495L321.513 331.71ZM323.333 349.195L322.505 348.633L322.505 348.633L323.333 349.195ZM317.808 354.98L317.233 354.162L316.402 354.745L316.998 355.567L317.808 354.98ZM323.723 362.91L322.927 363.515L322.932 363.522L322.936 363.528L323.723 362.91ZM328.338 368.63L327.59 369.294L327.599 369.304L327.609 369.314L328.338 368.63ZM337.308 373.44L338.307 373.471L338.336 372.553L337.424 372.447L337.308 373.44ZM337.243 375.52L337.226 376.52L338.211 376.536L338.242 375.551L337.243 375.52ZM330.808 374.35L330.38 375.254L330.389 375.258L330.399 375.263L330.808 374.35ZM326.063 370.84L325.336 371.527L325.341 371.532L325.346 371.537L326.063 370.84ZM314.948 356.28L315.756 355.691L315.456 355.28H314.948V356.28ZM303.378 355.89L303.453 354.893L302.378 354.812V355.89H303.378ZM303.378 375V376H304.378V375H303.378ZM319.173 349.91L318.415 349.257L318.415 349.257L319.173 349.91ZM319.043 333.66L318.426 334.447L318.434 334.454L318.443 334.46L319.043 333.66ZM303.378 331.32L303.311 330.322L302.378 330.384V331.32H303.378ZM303.378 353.355H302.378V354.294L303.315 354.353L303.378 353.355ZM301.258 375V328.72H299.258V375H301.258ZM300.331 329.717C304.434 329.415 307.853 329.265 310.593 329.265V327.265C307.786 327.265 304.315 327.418 300.184 327.723L300.331 329.717ZM310.593 329.265C314.833 329.265 318.239 330.363 320.887 332.49L322.139 330.93C319.067 328.463 315.192 327.265 310.593 327.265V329.265ZM320.894 332.495C323.477 334.531 324.803 337.427 324.803 341.33H326.803C326.803 336.913 325.269 333.396 322.132 330.925L320.894 332.495ZM324.803 341.33C324.803 343.938 324.044 346.365 322.505 348.633L324.16 349.757C325.914 347.171 326.803 344.355 326.803 341.33H324.803ZM322.505 348.633C320.915 350.977 319.155 352.812 317.233 354.162L318.382 355.798C320.534 354.288 322.457 352.266 324.16 349.757L322.505 348.633ZM316.998 355.567C318.607 357.785 320.584 360.435 322.927 363.515L324.519 362.305C322.182 359.232 320.215 356.595 318.617 354.393L316.998 355.567ZM322.936 363.528C325.314 366.554 326.873 368.487 327.59 369.294L329.085 367.966C328.416 367.213 326.898 365.333 324.509 362.292L322.936 363.528ZM327.609 369.314C330.388 372.276 333.586 374.012 337.192 374.433L337.424 372.447C334.356 372.088 331.574 370.618 329.067 367.946L327.609 369.314ZM336.308 373.409L336.243 375.489L338.242 375.551L338.307 373.471L336.308 373.409ZM337.259 374.52C334.693 374.478 332.696 374.099 331.216 373.437L330.399 375.263C332.213 376.074 334.505 376.475 337.226 376.52L337.259 374.52ZM331.236 373.446C329.716 372.726 328.229 371.634 326.78 370.143L325.346 371.537C326.93 373.166 328.606 374.414 330.38 375.254L331.236 373.446ZM326.79 370.153C325.371 368.651 321.711 363.862 315.756 355.691L314.14 356.869C320.058 364.991 323.808 369.909 325.336 371.527L326.79 370.153ZM314.948 355.28C310.721 355.28 306.89 355.151 303.453 354.893L303.303 356.887C306.799 357.149 310.681 357.28 314.948 357.28V355.28ZM302.378 355.89V375H304.378V355.89H302.378ZM303.378 374H300.258V376H303.378V374ZM313.063 354.68C315.416 354.68 317.707 353.142 319.93 350.563L318.415 349.257C316.305 351.705 314.523 352.68 313.063 352.68V354.68ZM319.93 350.563C322.252 347.87 323.423 344.735 323.423 341.2H321.423C321.423 344.252 320.427 346.924 318.415 349.257L319.93 350.563ZM323.423 341.2C323.423 337.614 322.196 334.775 319.643 332.86L318.443 334.46C320.396 335.925 321.423 338.113 321.423 341.2H323.423ZM319.66 332.873C317.226 330.964 314.04 330.06 310.203 330.06V332.06C313.732 332.06 316.44 332.889 318.426 334.447L319.66 332.873ZM310.203 330.06C308.225 330.06 305.927 330.148 303.311 330.322L303.444 332.318C306.029 332.145 308.281 332.06 310.203 332.06V330.06ZM302.378 331.32V353.355H304.378V331.32H302.378ZM303.315 354.353C306.8 354.571 310.049 354.68 313.063 354.68V352.68C310.097 352.68 306.889 352.573 303.44 352.357L303.315 354.353ZM433.261 358.88V357.88H432.593L432.337 358.496L433.261 358.88ZM426.566 375V376H427.233L427.489 375.384L426.566 375ZM423.251 375L422.328 374.614L421.749 376H423.251V375ZM442.816 328.2V327.2H442.15L441.893 327.814L442.816 328.2ZM444.636 328.2L445.558 327.813L445.301 327.2H444.636V328.2ZM464.266 375V376H465.77L465.188 374.613L464.266 375ZM460.756 375L459.832 375.384L460.088 376H460.756V375ZM454.061 358.88L454.984 358.496L454.728 357.88H454.061V358.88ZM443.531 333.4H444.531V330.986L442.824 332.693L443.531 333.4ZM443.271 334.18L444.222 334.49L444.229 334.467L444.236 334.443L443.271 334.18ZM441.516 338.925L440.598 338.527L440.595 338.535L440.592 338.543L441.516 338.925ZM434.366 356.215L433.442 355.833L432.87 357.215H434.366V356.215ZM452.956 356.215V357.215H454.454L453.88 355.832L452.956 356.215ZM445.806 338.99L446.73 338.607L446.722 338.589L446.714 338.572L445.806 338.99ZM432.337 358.496L425.642 374.616L427.489 375.384L434.184 359.264L432.337 358.496ZM426.566 374H423.251V376H426.566V374ZM424.174 375.386L443.739 328.586L441.893 327.814L422.328 374.614L424.174 375.386ZM442.816 329.2H444.636V327.2H442.816V329.2ZM443.714 328.587L463.344 375.387L465.188 374.613L445.558 327.813L443.714 328.587ZM464.266 374H460.756V376H464.266V374ZM461.679 374.616L454.984 358.496L453.137 359.264L459.832 375.384L461.679 374.616ZM454.061 357.88H433.261V359.88H454.061V357.88ZM442.824 332.693C442.72 332.797 442.66 332.902 442.638 332.941C442.609 332.993 442.587 333.042 442.571 333.079C442.539 333.154 442.51 333.235 442.485 333.311C442.433 333.467 442.373 333.672 442.306 333.917L444.236 334.443C444.299 334.211 444.348 334.048 444.382 333.944C444.39 333.919 444.397 333.9 444.402 333.886C444.408 333.871 444.41 333.866 444.409 333.867C444.409 333.868 444.407 333.872 444.404 333.879C444.401 333.885 444.395 333.897 444.387 333.912C444.379 333.927 444.365 333.951 444.344 333.98C444.326 334.007 444.291 334.054 444.238 334.107L442.824 332.693ZM442.32 333.87C441.72 335.714 441.146 337.265 440.598 338.527L442.433 339.323C443.013 337.985 443.609 336.372 444.222 334.49L442.32 333.87ZM440.592 338.543L433.442 355.833L435.29 356.597L442.44 339.307L440.592 338.543ZM434.366 357.215H452.956V355.215H434.366V357.215ZM453.88 355.832L446.73 338.607L444.882 339.373L452.032 356.598L453.88 355.832ZM446.714 338.572C445.958 336.93 445.397 335.656 445.026 334.746C444.84 334.289 444.707 333.936 444.623 333.68C444.522 333.374 444.531 333.324 444.531 333.4H442.531C442.531 333.693 442.635 334.038 442.724 334.307C442.828 334.624 442.98 335.024 443.173 335.499C443.561 336.452 444.137 337.757 444.898 339.408L446.714 338.572ZM583.612 372.595V373.595H584.248L584.517 373.018L583.612 372.595ZM581.857 372.595L580.932 372.977L581.188 373.595H581.857V372.595ZM568.272 339.705L569.196 339.323L569.191 339.311L568.272 339.705ZM566.387 334.895L567.332 334.57L565.395 334.765L566.387 334.895ZM565.737 339.835L566.725 339.985L566.727 339.975L566.728 339.965L565.737 339.835ZM560.407 375V376H561.266L561.395 375.15L560.407 375ZM557.222 375L556.235 374.838L556.045 376H557.222V375ZM564.892 328.135V327.135H564.042L563.905 327.973L564.892 328.135ZM566.712 328.135L567.633 327.747L567.376 327.135H566.712V328.135ZM581.207 362.585L580.285 362.973L580.291 362.988L580.298 363.002L581.207 362.585ZM582.962 367.135L582.004 367.425L583.012 370.75L583.926 367.398L582.962 367.135ZM584.977 362.65L585.877 363.085L585.882 363.075L584.977 362.65ZM601.162 328.135V327.135H600.526L600.256 327.71L601.162 328.135ZM602.917 328.135L603.905 327.986L603.777 327.135H602.917V328.135ZM610.002 375V376H611.164L610.99 374.851L610.002 375ZM606.752 375L605.762 375.142L605.885 376H606.752V375ZM601.682 339.705L602.671 339.563L602.669 339.55L601.682 339.705ZM601.162 334.7H602.162V332.286L600.454 333.993L601.162 334.7ZM600.837 335.35L599.923 334.944L599.911 334.971L599.9 334.999L600.837 335.35ZM600.057 337.17L599.145 336.76L599.14 336.771L599.135 336.782L600.057 337.17ZM598.952 339.77L599.857 340.193L599.864 340.179L599.871 340.164L598.952 339.77ZM583.612 371.595H581.857V373.595H583.612V371.595ZM582.781 372.213L569.196 339.323L567.347 340.087L580.932 372.977L582.781 372.213ZM569.191 339.311C568.417 337.506 567.799 335.927 567.332 334.57L565.441 335.22C565.928 336.636 566.566 338.264 567.352 340.099L569.191 339.311ZM565.395 334.765L564.745 339.705L566.728 339.965L567.378 335.025L565.395 334.765ZM564.748 339.685L559.418 374.85L561.395 375.15L566.725 339.985L564.748 339.685ZM560.407 374H557.222V376H560.407V374ZM558.208 375.162L565.878 328.297L563.905 327.973L556.235 374.838L558.208 375.162ZM564.892 329.135H566.712V327.135H564.892V329.135ZM565.79 328.523L580.285 362.973L582.128 362.197L567.633 327.747L565.79 328.523ZM580.298 363.002C581.019 364.572 581.586 366.046 582.004 367.425L583.919 366.845C583.47 365.364 582.868 363.805 582.115 362.167L580.298 363.002ZM583.926 367.398C583.967 367.25 584.131 366.831 584.475 366.066C584.805 365.331 585.272 364.338 585.877 363.085L584.076 362.215C583.468 363.475 582.992 364.487 582.651 365.246C582.323 365.977 582.086 366.544 581.997 366.872L583.926 367.398ZM585.882 363.075L602.067 328.56L600.256 327.71L584.071 362.225L585.882 363.075ZM601.162 329.135H602.917V327.135H601.162V329.135ZM601.928 328.284L609.013 375.149L610.99 374.851L603.905 327.986L601.928 328.284ZM610.002 374H606.752V376H610.002V374ZM607.741 374.858L602.671 339.563L600.692 339.847L605.762 375.142L607.741 374.858ZM602.669 339.55C602.325 337.352 602.162 335.746 602.162 334.7H600.162C600.162 335.907 600.345 337.638 600.694 339.86L602.669 339.55ZM600.454 333.993C600.342 334.105 600.271 334.231 600.253 334.261C600.219 334.32 600.185 334.384 600.153 334.448C600.089 334.576 600.012 334.744 599.923 334.944L601.75 335.756C601.835 335.566 601.898 335.431 601.942 335.342C601.965 335.297 601.977 335.275 601.981 335.269C601.982 335.266 601.977 335.275 601.966 335.291C601.96 335.3 601.926 335.349 601.869 335.407L600.454 333.993ZM599.9 334.999C599.783 335.312 599.535 335.892 599.145 336.76L600.968 337.58C601.358 336.715 601.63 336.082 601.773 335.701L599.9 334.999ZM599.135 336.782C598.789 337.603 598.422 338.468 598.032 339.376L599.871 340.164C600.261 339.252 600.631 338.384 600.978 337.558L599.135 336.782ZM598.046 339.347L582.706 372.172L584.517 373.018L599.857 340.193L598.046 339.347ZM710.519 375H709.519V376H710.519V375ZM710.519 328.525V327.525H709.519V328.525H710.519ZM732.099 328.525H733.099V327.525H732.099V328.525ZM732.099 331.255V332.255H733.099V331.255H732.099ZM713.639 331.255V330.255H712.639V331.255H713.639ZM713.639 348.35H712.639V349.35H713.639V348.35ZM730.344 348.35H731.344V347.35H730.344V348.35ZM730.344 351.015V352.015H731.344V351.015H730.344ZM713.639 351.015V350.015H712.639V351.015H713.639ZM713.639 372.27H712.639V373.27H713.639V372.27ZM732.814 372.27H733.814V371.27H732.814V372.27ZM732.814 375V376H733.814V375H732.814ZM711.519 375V328.525H709.519V375H711.519ZM710.519 329.525H732.099V327.525H710.519V329.525ZM731.099 328.525V331.255H733.099V328.525H731.099ZM732.099 330.255H713.639V332.255H732.099V330.255ZM712.639 331.255V348.35H714.639V331.255H712.639ZM713.639 349.35H730.344V347.35H713.639V349.35ZM729.344 348.35V351.015H731.344V348.35H729.344ZM730.344 350.015H713.639V352.015H730.344V350.015ZM712.639 351.015V372.27H714.639V351.015H712.639ZM713.639 373.27H732.814V371.27H713.639V373.27ZM731.814 372.27V375H733.814V372.27H731.814ZM732.814 374H710.519V376H732.814V374ZM853.14 332.62L852.749 333.54L853.66 333.928L854.056 333.02L853.14 332.62ZM836.37 343.345L835.591 343.972L835.598 343.981L836.37 343.345ZM841.57 348.025L841.007 348.852L841.013 348.856L841.019 348.86L841.57 348.025ZM847.68 352.185L848.254 351.367L848.254 351.367L847.68 352.185ZM852.88 357.32L852.067 357.903L852.067 357.903L852.88 357.32ZM851.06 372.79L851.662 373.588L851.67 373.582L851.06 372.79ZM828.18 372.205L827.348 371.65L826.814 372.451L827.593 373.015L828.18 372.205ZM829.74 369.865L830.286 369.028L829.457 368.486L828.908 369.31L829.74 369.865ZM848.59 370.71L849.184 371.514L849.195 371.506L848.59 370.71ZM849.435 358.685L848.656 359.312L848.663 359.321L849.435 358.685ZM844.235 353.94L843.66 354.758L843.666 354.763L843.672 354.767L844.235 353.94ZM838.125 349.585L838.711 348.775L838.711 348.775L838.125 349.585ZM832.925 344.32L833.743 343.745L833.743 343.745L832.925 344.32ZM834.16 330.475L834.779 331.26L834.781 331.259L834.16 330.475ZM854.245 330.085L855.161 330.485L855.551 329.592L854.668 329.179L854.245 330.085ZM853.53 331.7C850.256 330.309 846.982 329.605 843.715 329.605V331.605C846.687 331.605 849.696 332.244 852.749 333.54L853.53 331.7ZM843.715 329.605C840.457 329.605 837.833 330.202 836.002 331.556C834.116 332.952 833.225 335.036 833.225 337.625H835.225C835.225 335.534 835.915 334.108 837.192 333.164C838.525 332.178 840.645 331.605 843.715 331.605V329.605ZM833.225 337.625C833.225 339.917 834.036 342.04 835.591 343.972L837.149 342.718C835.843 341.096 835.225 339.406 835.225 337.625H833.225ZM835.598 343.981C837.094 345.794 838.899 347.417 841.007 348.852L842.132 347.198C840.166 345.86 838.505 344.362 837.141 342.709L835.598 343.981ZM841.019 348.86C843.047 350.198 845.076 351.579 847.105 353.003L848.254 351.367C846.21 349.931 844.165 348.539 842.12 347.19L841.019 348.86ZM847.105 353.003C849.051 354.37 850.704 356.002 852.067 357.903L853.692 356.737C852.196 354.651 850.382 352.86 848.254 351.367L847.105 353.003ZM852.067 357.903C853.381 359.735 854.025 361.7 854.025 363.82H856.025C856.025 361.26 855.238 358.892 853.692 356.737L852.067 357.903ZM854.025 363.82C854.025 367.517 852.801 370.186 850.449 371.998L851.67 373.582C854.605 371.321 856.025 368.01 856.025 363.82H854.025ZM850.458 371.992C848.046 373.81 844.625 374.78 840.075 374.78V376.78C844.884 376.78 848.786 375.757 851.662 373.588L850.458 371.992ZM840.075 374.78C835.618 374.78 831.865 373.638 828.766 371.395L827.593 373.015C831.081 375.539 835.258 376.78 840.075 376.78V374.78ZM829.012 372.76L830.572 370.42L828.908 369.31L827.348 371.65L829.012 372.76ZM829.193 370.702C832.476 372.845 836.089 373.92 840.01 373.92V371.92C836.477 371.92 833.244 370.958 830.286 369.028L829.193 370.702ZM840.01 373.92C843.848 373.92 846.951 373.164 849.184 371.514L847.995 369.906C846.241 371.202 843.624 371.92 840.01 371.92V373.92ZM849.195 371.506C851.47 369.775 852.58 367.295 852.58 364.21H850.58C850.58 366.759 849.695 368.612 847.984 369.914L849.195 371.506ZM852.58 364.21C852.58 361.993 851.76 359.932 850.206 358.049L848.663 359.321C849.969 360.904 850.58 362.527 850.58 364.21H852.58ZM850.214 358.058C848.717 356.199 846.909 354.551 844.797 353.113L843.672 354.767C845.633 356.102 847.292 357.618 848.656 359.312L850.214 358.058ZM844.809 353.122C842.776 351.694 840.744 350.245 838.711 348.775L837.538 350.395C839.579 351.871 841.619 353.326 843.66 354.758L844.809 353.122ZM838.711 348.775C836.763 347.366 835.109 345.69 833.743 343.745L832.106 344.895C833.601 347.023 835.413 348.857 837.538 350.395L838.711 348.775ZM833.743 343.745C832.423 341.866 831.78 339.876 831.78 337.755H829.78C829.78 340.314 830.566 342.701 832.106 344.895L833.743 343.745ZM831.78 337.755C831.78 334.959 832.785 332.832 834.779 331.26L833.54 329.69C831.027 331.671 829.78 334.398 829.78 337.755H831.78ZM834.781 331.259C836.852 329.618 839.687 328.745 843.39 328.745V326.745C839.379 326.745 836.061 327.692 833.539 329.691L834.781 331.259ZM843.39 328.745C847.152 328.745 850.625 329.496 853.821 330.991L854.668 329.179C851.191 327.554 847.427 326.745 843.39 326.745V328.745ZM853.328 329.685L852.223 332.22L854.056 333.02L855.161 330.485L853.328 329.685Z" fill="white" mask="url(#path-7-outside-3_114_3)"/>
</g>
<defs>
<filter id="filter0_d_114_3" x="20.1211" y="2" width="523.23" height="214.796" filterUnits="userSpaceOnUse" color-interpolation-filters="sRGB">
<feFlood flood-opacity="0" result="BackgroundImageFix"/>
<feColorMatrix in="SourceAlpha" type="matrix" values="0 0 0 0 0 0 0 0 0 0 0 0 0 0 0 0 0 0 127 0" result="hardAlpha"/>
<feOffset dy="4"/>
<feGaussianBlur stdDeviation="2"/>
<feComposite in2="hardAlpha" operator="out"/>
<feColorMatrix type="matrix" values="0 0 0 0 0 0 0 0 0 0 0 0 0 0 0 0 0 0 0.25 0"/>
<feBlend mode="normal" in2="BackgroundImageFix" result="effect1_dropShadow_114_3"/>
<feBlend mode="normal" in="SourceGraphic" in2="effect1_dropShadow_114_3" result="shape"/>
</filter>
<filter id="filter1_d_114_3" x="0.455566" y="0.5" width="530.789" height="218.641" filterUnits="userSpaceOnUse" color-interpolation-filters="sRGB">
<feFlood flood-opacity="0" result="BackgroundImageFix"/>
<feColorMatrix in="SourceAlpha" type="matrix" values="0 0 0 0 0 0 0 0 0 0 0 0 0 0 0 0 0 0 127 0" result="hardAlpha"/>
<feOffset dy="4"/>
<feGaussianBlur stdDeviation="2"/>
<feComposite in2="hardAlpha" operator="out"/>
<feColorMatrix type="matrix" values="0 0 0 0 0 0 0 0 0 0 0 0 0 0 0 0 0 0 0.25 0"/>
<feBlend mode="normal" in2="BackgroundImageFix" result="effect1_dropShadow_114_3"/>
<feBlend mode="normal" in="SourceGraphic" in2="effect1_dropShadow_114_3" result="shape"/>
</filter>
<filter id="filter2_d_114_3" x="165.8" y="187.85" width="694.269" height="117.35" filterUnits="userSpaceOnUse" color-interpolation-filters="sRGB">
<feFlood flood-opacity="0" result="BackgroundImageFix"/>
<feColorMatrix in="SourceAlpha" type="matrix" values="0 0 0 0 0 0 0 0 0 0 0 0 0 0 0 0 0 0 127 0" result="hardAlpha"/>
<feOffset dy="4"/>
<feGaussianBlur stdDeviation="2"/>
<feComposite in2="hardAlpha" operator="out"/>
<feColorMatrix type="matrix" values="0 0 0 0 0 0 0 0 0 0 0 0 0 0 0 0 0 0 0.25 0"/>
<feBlend mode="normal" in2="BackgroundImageFix" result="effect1_dropShadow_114_3"/>
<feBlend mode="normal" in="SourceGraphic" in2="effect1_dropShadow_114_3" result="shape"/>
</filter>
<filter id="filter3_d_114_3" x="176.8" y="187.85" width="694.269" height="117.35" filterUnits="userSpaceOnUse" color-interpolation-filters="sRGB">
<feFlood flood-opacity="0" result="BackgroundImageFix"/>
<feColorMatrix in="SourceAlpha" type="matrix" values="0 0 0 0 0 0 0 0 0 0 0 0 0 0 0 0 0 0 127 0" result="hardAlpha"/>
<feOffset dy="4"/>
<feGaussianBlur stdDeviation="2"/>
<feComposite in2="hardAlpha" operator="out"/>
<feColorMatrix type="matrix" values="0 0 0 0 0 0 0 0 0 0 0 0 0 0 0 0 0 0 0.25 0"/>
<feBlend mode="normal" in2="BackgroundImageFix" result="effect1_dropShadow_114_3"/>
<feBlend mode="normal" in="SourceGraphic" in2="effect1_dropShadow_114_3" result="shape"/>
</filter>
<filter id="filter4_d_114_3" x="172.58" y="327.745" width="686.444" height="56.035" filterUnits="userSpaceOnUse" color-interpolation-filters="sRGB">
<feFlood flood-opacity="0" result="BackgroundImageFix"/>
<feColorMatrix in="SourceAlpha" type="matrix" values="0 0 0 0 0 0 0 0 0 0 0 0 0 0 0 0 0 0 127 0" result="hardAlpha"/>
<feOffset dy="4"/>
<feGaussianBlur stdDeviation="2"/>
<feComposite in2="hardAlpha" operator="out"/>
<feColorMatrix type="matrix" values="0 0 0 0 0 0 0 0 0 0 0 0 0 0 0 0 0 0 0.25 0"/>
<feBlend mode="normal" in2="BackgroundImageFix" result="effect1_dropShadow_114_3"/>
<feBlend mode="normal" in="SourceGraphic" in2="effect1_dropShadow_114_3" result="shape"/>
</filter>
</defs>
</svg>
