<svg width="878" height="384" viewBox="0 0 878 384" fill="none" xmlns="http://www.w3.org/2000/svg">
<g filter="url(#filter0_d_114_4)">
<path d="M25 207L37.8948 200.69L56.0583 193.293L71.8648 185.025L87.1166 172.188L104.032 162.179L123.998 152.823L141.607 137.158L159.078 117.14L173.775 106.044L191.938 88.6377L212.459 69.2733L228.266 52.7374L239.913 35.3312L248.093 25.105H252.807H259.324H265.702H269.168H278.042L287.332 18.7953L293.849 14.2262L307.298 4H319.638L333.087 14.2262L344.734 18.7953L354.717 35.3312L369.969 48.1683L391.044 64.7042L403.939 81.2401L423.212 100.604L432.641 111.483L456.073 127.149L484.774 152.823L499.887 162.179L517.496 178.715L532 184.5L538 190" stroke="black" stroke-width="4"/>
</g>
<g filter="url(#filter1_d_114_4)">
<path d="M6 208L18.8948 201.659L37.0583 194.225L52.8648 185.916L68.1166 173.016L85.0323 162.958L104.998 153.556L122.607 137.814L140.078 117.698L154.775 106.547L172.938 89.0547L193.459 69.5949L209.266 52.9775L220.913 35.4855L229.093 25.209H233.807H240.324H246.702H250.168H259.042L268.332 18.8682L274.849 14.2765L288.298 4H300.638L314.087 14.2765L325.734 18.8682L335.717 35.4855L350.969 48.3858L372.044 65.0032L384.939 81.6206L404.212 101.08L413.641 112.013L437.073 127.756L465.774 153.556L480.887 162.958L498.496 179.576L516.66 185.916L525.5 191" stroke="black" stroke-width="7"/>
</g>
<g filter="url(#filter2_d_114_4)">
<path d="M190.8 262.25L176.85 296H169.8L210.6 198.05H214.65L255.75 296H248.1L234 262.25H190.8ZM212.25 209.15C210.75 213.65 209.4 217.4 208.2 220.4L193.2 256.4H231.6L216.75 220.55C214.45 214.95 212.95 211.15 212.25 209.15ZM299.802 296V189.2C309.302 188.5 317.252 188.15 323.652 188.15C333.852 188.15 342.252 190.8 348.852 196.1C355.452 201.3 358.752 208.7 358.752 218.3C358.752 224.8 356.852 230.85 353.052 236.45C349.252 242.05 345.002 246.5 340.302 249.8C344.002 254.9 348.552 261 353.952 268.1C359.452 275.1 363.002 279.5 364.602 281.3C370.702 287.8 377.602 291.5 385.302 292.4L385.152 297.2C379.052 297.1 374.102 296.2 370.302 294.5C366.502 292.7 362.852 290 359.352 286.4C355.952 282.8 347.402 271.6 333.702 252.8C323.902 252.8 315.002 252.5 307.002 251.9V296H299.802ZM329.352 246.8C333.752 246.8 338.452 243.9 343.452 238.1C348.452 232.3 350.952 225.6 350.952 218C350.952 210.3 348.352 204.5 343.152 200.6C338.052 196.6 331.252 194.6 322.752 194.6C318.252 194.6 313.002 194.8 307.002 195.2V246.05C315.002 246.55 322.452 246.8 329.352 246.8ZM421.032 296V188.75H470.832V195.05H428.232V234.5H466.782V240.65H428.232V289.7H472.482V296H421.032ZM530.706 205.85L531.006 218.6V296H523.806V187.85H527.106L597.756 269.3C602.556 275 606.256 279.55 608.856 282.95C608.456 278.15 608.256 272.65 608.256 266.45V188.75H615.456V296.9H612.156L540.156 213.95C535.156 208.25 531.956 204.45 530.556 202.55L530.706 205.85ZM683.256 258.8L667.806 296H660.156L705.306 188H709.506L754.806 296H746.706L731.256 258.8H683.256ZM706.956 200C706.856 200.1 706.656 200.7 706.356 201.8C704.956 206.1 703.606 209.75 702.306 212.75L685.806 252.65H728.706L712.206 212.9C708.706 205.3 706.956 201 706.956 200ZM799.519 296V188.75H806.719V289.4H856.069V296H799.519Z" fill="black"/>
</g>
<g filter="url(#filter3_d_114_4)">
<path d="M201.8 262.25L187.85 296H180.8L221.6 198.05H225.65L266.75 296H259.1L245 262.25H201.8ZM223.25 209.15C221.75 213.65 220.4 217.4 219.2 220.4L204.2 256.4H242.6L227.75 220.55C225.45 214.95 223.95 211.15 223.25 209.15ZM310.802 296V189.2C320.302 188.5 328.252 188.15 334.652 188.15C344.852 188.15 353.252 190.8 359.852 196.1C366.452 201.3 369.752 208.7 369.752 218.3C369.752 224.8 367.852 230.85 364.052 236.45C360.252 242.05 356.002 246.5 351.302 249.8C355.002 254.9 359.552 261 364.952 268.1C370.452 275.1 374.002 279.5 375.602 281.3C381.702 287.8 388.602 291.5 396.302 292.4L396.152 297.2C390.052 297.1 385.102 296.2 381.302 294.5C377.502 292.7 373.852 290 370.352 286.4C366.952 282.8 358.402 271.6 344.702 252.8C334.902 252.8 326.002 252.5 318.002 251.9V296H310.802ZM340.352 246.8C344.752 246.8 349.452 243.9 354.452 238.1C359.452 232.3 361.952 225.6 361.952 218C361.952 210.3 359.352 204.5 354.152 200.6C349.052 196.6 342.252 194.6 333.752 194.6C329.252 194.6 324.002 194.8 318.002 195.2V246.05C326.002 246.55 333.452 246.8 340.352 246.8ZM432.032 296V188.75H481.832V195.05H439.232V234.5H477.782V240.65H439.232V289.7H483.482V296H432.032ZM541.706 205.85L542.006 218.6V296H534.806V187.85H538.106L608.756 269.3C613.556 275 617.256 279.55 619.856 282.95C619.456 278.15 619.256 272.65 619.256 266.45V188.75H626.456V296.9H623.156L551.156 213.95C546.156 208.25 542.956 204.45 541.556 202.55L541.706 205.85ZM694.256 258.8L678.806 296H671.156L716.306 188H720.506L765.806 296H757.706L742.256 258.8H694.256ZM717.956 200C717.856 200.1 717.656 200.7 717.356 201.8C715.956 206.1 714.606 209.75 713.306 212.75L696.806 252.65H739.706L723.206 212.9C719.706 205.3 717.956 201 717.956 200ZM810.519 296V188.75H817.719V289.4H867.069V296H810.519Z" fill="black"/>
</g>
<g filter="url(#filter4_d_114_4)">
<path d="M176.58 375V328.525H200.305V331.255H179.7V348.35H198.55V351.015H179.7V375H176.58ZM300.258 375V328.72C304.374 328.417 307.819 328.265 310.593 328.265C315.013 328.265 318.653 329.413 321.513 331.71C324.373 333.963 325.803 337.17 325.803 341.33C325.803 344.147 324.979 346.768 323.333 349.195C321.686 351.622 319.844 353.55 317.808 354.98C319.411 357.19 321.383 359.833 323.723 362.91C326.106 365.943 327.644 367.85 328.338 368.63C330.981 371.447 333.971 373.05 337.308 373.44L337.243 375.52C334.599 375.477 332.454 375.087 330.808 374.35C329.161 373.57 327.579 372.4 326.063 370.84C324.589 369.28 320.884 364.427 314.948 356.28C310.701 356.28 306.844 356.15 303.378 355.89V375H300.258ZM313.063 353.68C314.969 353.68 317.006 352.423 319.173 349.91C321.339 347.397 322.423 344.493 322.423 341.2C322.423 337.863 321.296 335.35 319.043 333.66C316.833 331.927 313.886 331.06 310.203 331.06C308.253 331.06 305.978 331.147 303.378 331.32V353.355C306.844 353.572 310.073 353.68 313.063 353.68ZM433.261 358.88L426.566 375H423.251L442.816 328.2H444.636L464.266 375H460.756L454.061 358.88H433.261ZM443.531 333.4C443.488 333.443 443.401 333.703 443.271 334.18C442.664 336.043 442.079 337.625 441.516 338.925L434.366 356.215H452.956L445.806 338.99C444.289 335.697 443.531 333.833 443.531 333.4ZM583.612 372.595H581.857L568.272 339.705C567.492 337.885 566.863 336.282 566.387 334.895L565.737 339.835L560.407 375H557.222L564.892 328.135H566.712L581.207 362.585C581.943 364.188 582.528 365.705 582.962 367.135C583.092 366.658 583.763 365.163 584.977 362.65L601.162 328.135H602.917L610.002 375H606.752L601.682 339.705C601.335 337.495 601.162 335.827 601.162 334.7C601.118 334.743 601.01 334.96 600.837 335.35C600.707 335.697 600.447 336.303 600.057 337.17C599.71 337.993 599.342 338.86 598.952 339.77L583.612 372.595ZM710.519 375V328.525H732.099V331.255H713.639V348.35H730.344V351.015H713.639V372.27H732.814V375H710.519ZM853.14 332.62C849.976 331.277 846.835 330.605 843.715 330.605C837.388 330.605 834.225 332.945 834.225 337.625C834.225 339.662 834.94 341.568 836.37 343.345C837.8 345.078 839.533 346.638 841.57 348.025C843.606 349.368 845.643 350.755 847.68 352.185C849.716 353.615 851.45 355.327 852.88 357.32C854.31 359.313 855.025 361.48 855.025 363.82C855.025 367.763 853.703 370.753 851.06 372.79C848.416 374.783 844.755 375.78 840.075 375.78C835.438 375.78 831.473 374.588 828.18 372.205L829.74 369.865C832.86 371.902 836.283 372.92 840.01 372.92C843.736 372.92 846.596 372.183 848.59 370.71C850.583 369.193 851.58 367.027 851.58 364.21C851.58 362.26 850.865 360.418 849.435 358.685C848.005 356.908 846.271 355.327 844.235 353.94C842.198 352.51 840.161 351.058 838.125 349.585C836.088 348.112 834.355 346.357 832.925 344.32C831.495 342.283 830.78 340.095 830.78 337.755C830.78 334.678 831.906 332.252 834.16 330.475C836.456 328.655 839.533 327.745 843.39 327.745C847.29 327.745 850.908 328.525 854.245 330.085L853.14 332.62Z" fill="black"/>
</g>
<defs>
<filter id="filter0_d_114_4" x="20.1211" y="2" width="523.23" height="214.796" filterUnits="userSpaceOnUse" color-interpolation-filters="sRGB">
<feFlood flood-opacity="0" result="BackgroundImageFix"/>
<feColorMatrix in="SourceAlpha" type="matrix" values="0 0 0 0 0 0 0 0 0 0 0 0 0 0 0 0 0 0 127 0" result="hardAlpha"/>
<feOffset dy="4"/>
<feGaussianBlur stdDeviation="2"/>
<feComposite in2="hardAlpha" operator="out"/>
<feColorMatrix type="matrix" values="0 0 0 0 0 0 0 0 0 0 0 0 0 0 0 0 0 0 0.25 0"/>
<feBlend mode="normal" in2="BackgroundImageFix" result="effect1_dropShadow_114_4"/>
<feBlend mode="normal" in="SourceGraphic" in2="effect1_dropShadow_114_4" result="shape"/>
</filter>
<filter id="filter1_d_114_4" x="0.455566" y="0.5" width="530.789" height="218.641" filterUnits="userSpaceOnUse" color-interpolation-filters="sRGB">
<feFlood flood-opacity="0" result="BackgroundImageFix"/>
<feColorMatrix in="SourceAlpha" type="matrix" values="0 0 0 0 0 0 0 0 0 0 0 0 0 0 0 0 0 0 127 0" result="hardAlpha"/>
<feOffset dy="4"/>
<feGaussianBlur stdDeviation="2"/>
<feComposite in2="hardAlpha" operator="out"/>
<feColorMatrix type="matrix" values="0 0 0 0 0 0 0 0 0 0 0 0 0 0 0 0 0 0 0.25 0"/>
<feBlend mode="normal" in2="BackgroundImageFix" result="effect1_dropShadow_114_4"/>
<feBlend mode="normal" in="SourceGraphic" in2="effect1_dropShadow_114_4" result="shape"/>
</filter>
<filter id="filter2_d_114_4" x="165.8" y="187.85" width="694.269" height="117.35" filterUnits="userSpaceOnUse" color-interpolation-filters="sRGB">
<feFlood flood-opacity="0" result="BackgroundImageFix"/>
<feColorMatrix in="SourceAlpha" type="matrix" values="0 0 0 0 0 0 0 0 0 0 0 0 0 0 0 0 0 0 127 0" result="hardAlpha"/>
<feOffset dy="4"/>
<feGaussianBlur stdDeviation="2"/>
<feComposite in2="hardAlpha" operator="out"/>
<feColorMatrix type="matrix" values="0 0 0 0 0 0 0 0 0 0 0 0 0 0 0 0 0 0 0.25 0"/>
<feBlend mode="normal" in2="BackgroundImageFix" result="effect1_dropShadow_114_4"/>
<feBlend mode="normal" in="SourceGraphic" in2="effect1_dropShadow_114_4" result="shape"/>
</filter>
<filter id="filter3_d_114_4" x="176.8" y="187.85" width="694.269" height="117.35" filterUnits="userSpaceOnUse" color-interpolation-filters="sRGB">
<feFlood flood-opacity="0" result="BackgroundImageFix"/>
<feColorMatrix in="SourceAlpha" type="matrix" values="0 0 0 0 0 0 0 0 0 0 0 0 0 0 0 0 0 0 127 0" result="hardAlpha"/>
<feOffset dy="4"/>
<feGaussianBlur stdDeviation="2"/>
<feComposite in2="hardAlpha" operator="out"/>
<feColorMatrix type="matrix" values="0 0 0 0 0 0 0 0 0 0 0 0 0 0 0 0 0 0 0.25 0"/>
<feBlend mode="normal" in2="BackgroundImageFix" result="effect1_dropShadow_114_4"/>
<feBlend mode="normal" in="SourceGraphic" in2="effect1_dropShadow_114_4" result="shape"/>
</filter>
<filter id="filter4_d_114_4" x="172.58" y="327.745" width="686.444" height="56.035" filterUnits="userSpaceOnUse" color-interpolation-filters="sRGB">
<feFlood flood-opacity="0" result="BackgroundImageFix"/>
<feColorMatrix in="SourceAlpha" type="matrix" values="0 0 0 0 0 0 0 0 0 0 0 0 0 0 0 0 0 0 127 0" result="hardAlpha"/>
<feOffset dy="4"/>
<feGaussianBlur stdDeviation="2"/>
<feComposite in2="hardAlpha" operator="out"/>
<feColorMatrix type="matrix" values="0 0 0 0 0 0 0 0 0 0 0 0 0 0 0 0 0 0 0.25 0"/>
<feBlend mode="normal" in2="BackgroundImageFix" result="effect1_dropShadow_114_4"/>
<feBlend mode="normal" in="SourceGraphic" in2="effect1_dropShadow_114_4" result="shape"/>
</filter>
</defs>
</svg>
